<svg width="24" id="OBJECT" viewBox="0 0 32 32" xmlns="http://www.w3.org/2000/svg"><path style="stroke:#27D2A5;fill:#27D2A5;" d="m5.5 13h6v2h-6z"/><path style="stroke:#27D2A5;fill:#27D2A5;" d="m5.5 18h11v2h-11z"/><path style="stroke:#27D2A5;fill:#27D2A5;" d="m5.5 23h9v2h-9z"/><path style="stroke:#27D2A5;fill:#27D2A5;" d="m30.5 8.13-3.5-2a1.06 1.06 0 0 0 -.76-.1 1 1 0 0 0 -.61.47l-4.63 8.09v-6.59a1 1 0 0 0 -.29-.71l-6-6a1 1 0 0 0 -.71-.29h-12a1 1 0 0 0 -1 1v28a1 1 0 0 0 1 1h18a1 1 0 0 0 1-1v-3.69a1.06 1.06 0 0 0 .37-.36l9.5-16.45a1 1 0 0 0 -.37-1.37zm-15.5-3.72 2.59 2.59h-2.59zm-12 24.59v-26h10v5a1 1 0 0 0 1 1h5v9.05l-2.83 4.95a.94.94 0 0 0 -.13.57l.23 3.6a1 1 0 0 0 .5.8 1 1 0 0 0 .5.13 1 1 0 0 0 .44-.1l1.29-.69v1.69zm16.78-4.31-1.61.8-.12-1.8 6.35-11 1.73 1zm7.35-12.69-1.73-1 1.5-2.59 1.73 1z"/></svg>   