<svg width="20" id="Layer_1" enable-background="new 0 0 510 510" viewBox="0 0 510 510" xmlns="http://www.w3.org/2000/svg"><g><path style="stroke:#27D2A5;fill:#27D2A5;" d="m0 510h390v-510h-390zm30-480h330v450h-330z"/><path style="stroke:#27D2A5;fill:#27D2A5;" d="m292.527 397.502-15.279-31.75-37.553 32.759c-9.381-5.296-20.248-7.604-31.26-6.449l3.129 29.836c6.803-.707 13.457 1.645 18.279 6.466l9.908 9.908 27.541-24.025 16.541 34.374 46.772-46.773-21.213-21.213z"/><path style="stroke:#27D2A5;fill:#27D2A5;" d="m75 75h240v30h-240z"/><path style="stroke:#27D2A5;fill:#27D2A5;" d="m75 135h240v30h-240z"/><path style="stroke:#27D2A5;fill:#27D2A5;" d="m75 195h240v30h-240z"/><path style="stroke:#27D2A5;fill:#27D2A5;" d="m75 255h240v30h-240z"/><path d="m75 315h120v30h-120z" style="stroke:#27D2A5;fill:#27D2A5;"/></g></svg>